:SAMPLES-PER-SECOND 30
:FULLY-SPECIFIED
:DEGREES
745
root  -8.90636 39.7178 9.79315 -178.629 -51.899 173.934
RightUpLeg  -3.54111 26.5883 -11.4976
RightLeg  46.2974 0.0979736 -0.208728
RightFoot  38.4786 -5.24001 11.8638
RightToes  -5.8209e-011 0 -3.6325e-017
Spine  -16.2153 -0.684727 6.43953
Spine1  24.0061 -3.57057 2.16374
HEad  -1.68092 -8.66264 0.80921
LeftShoulder1  7.07045 -15.0361 -32.1134
LeftArm  20.3989 11.0001 -46.6934
LeftForeArm  17.4877 -65.4268 -23.827
LeftHand  -0.246645 0.021 5.37786
RightShoulder  6.68407 14.101 32.0134
RightArm  36.853 16.7356 56.7966
RightForeArm  35.6989 61.3741 17.336
RightHand  -0.24729 -0.0210522 -5.37781
LeftUpLeg  -0.326383 3.88116 -5.09614
LeftLeg  17.6869 -37.4805 -12.9906
LeftFoot  -2.44123 -0.405218 5.39226
LeftToes  -7.45818e-011 -3.37383e-011 1.08613e-011
746
root  -8.87009 39.7243 9.84428 -179.415 -50.37 174.583
RightUpLeg  -3.90285 26.579 -11.6613
RightLeg  46.3138 -0.0553952 -0.380801
RightFoot  37.9457 -5.13342 11.7683
RightToes  -5.8209e-011 0 -3.6325e-017
Spine  -15.3147 -0.757735 6.03913
Spine1  23.5048 -3.64364 2.46453
HEad  -1.97033 -8.86942 1.02125
LeftShoulder1  7.12526 -15.1287 -32.2174
LeftArm  20.6582 11.2468 -46.7083
LeftForeArm  16.1206 -65.4521 -24.0453
LeftHand  -0.246645 0.021 5.37786
RightShoulder  6.71821 14.1267 32.1523
RightArm  36.5276 16.6225 56.6205
RightForeArm  34.572 60.5477 16.791
RightHand  -0.24729 -0.0210522 -5.37781
LeftUpLeg  -0.138953 4.38987 -4.7292
LeftLeg  17.5367 -36.5343 -12.7483
LeftFoot  -2.65811 -0.39699 5.43733
LeftToes  -7.45818e-011 -3.37383e-011 1.08613e-011
747
root  -8.83368 39.7281 9.89506 179.978 -48.7767 175.093
RightUpLeg  -4.36407 26.5756 -11.906
RightLeg  46.3507 -0.0963746 -0.426905
RightFoot  37.5061 -4.86135 11.2848
RightToes  -5.8209e-011 0 -3.6325e-017
Spine  -14.6766 -0.804529 5.54161
Spine1  23.2764 -3.71202 2.72892
HEad  -2.29592 -8.97212 1.14591
LeftShoulder1  7.18071 -15.2331 -32.2994
LeftArm  20.8302 11.3833 -46.7141
LeftForeArm  14.8733 -65.4268 -24.1798
LeftHand  -0.246645 0.021 5.37786
RightShoulder  6.76578 14.1781 32.3106
RightArm  36.2737 16.5805 56.4156
RightForeArm  32.5703 59.5722 16.2579
RightHand  -0.24729 -0.0210522 -5.37781
LeftUpLeg  -0.0358866 4.79196 -4.45396
LeftLeg  17.4172 -35.3704 -12.4752
LeftFoot  -2.94967 -0.402666 5.7272
LeftToes  -7.45818e-011 -3.37383e-011 1.08613e-011
748
root  -8.79606 39.7282 9.95404 179.469 -47.1613 175.493
RightUpLeg  -4.83946 26.5092 -12.2245
RightLeg  46.4066 -0.154261 -0.492453
RightFoot  36.9374 -4.53616 10.7033
RightToes  -5.8209e-011 0 -3.6325e-017
Spine  -14.1037 -0.865559 4.97504
Spine1  23.1675 -3.80902 3.01956
HEad  -2.69642 -9.13574 1.22053
LeftShoulder1  7.20887 -15.2959 -32.3206
LeftArm  20.8103 11.4227 -46.7834
LeftForeArm  13.9546 -65.3307 -24.1755
LeftHand  -0.246645 0.021 5.37786
RightShoulder  6.79323 14.22 32.3746
RightArm  36.1269 16.5915 56.297
RightForeArm  30.2176 58.5364 15.7531
RightHand  -0.24729 -0.0210522 -5.37781
LeftUpLeg  0.0606051 5.05136 -4.2723
LeftLeg  17.2431 -34.0859 -12.1228
LeftFoot  -3.23832 -0.399157 5.90531
LeftToes  -7.45818e-011 -3.37383e-011 1.08613e-011
749
root  -8.75367 39.7263 10.029 178.893 -45.5444 175.898
RightUpLeg  -5.21936 26.3448 -12.5264
RightLeg  46.445 -0.357829 -0.722298
RightFoot  36.0614 -4.35082 10.4904
RightToes  -5.8209e-011 0 -3.6325e-017
Spine  -13.2455 -0.941538 4.49332
Spine1  22.8194 -3.88611 3.28328
HEad  -3.09729 -9.47622 1.38022
LeftShoulder1  7.22673 -15.3316 -32.3423
LeftArm  20.7849 11.4888 -46.8114
LeftForeArm  13.0655 -65.2586 -24.1982
LeftHand  -0.246645 0.021 5.37786
RightShoulder  6.81646 14.2517 32.4369
RightArm  36.0923 16.5265 56.2159
RightForeArm  28.2459 57.5189 15.2562
RightHand  -0.24729 -0.0210522 -5.37781
LeftUpLeg  0.226629 5.28852 -4.08691
LeftLeg  17.0363 -32.8408 -11.7361
LeftFoot  -3.48533 -0.379292 5.82477
LeftToes  -7.45818e-011 -3.37383e-011 1.08613e-011
750
root  -8.70785 39.7291 10.1106 178.283 -43.8772 176.322
RightUpLeg  -5.53843 26.1397 -12.7845
RightLeg  46.4249 -0.692896 -1.09897
RightFoot  34.9665 -4.27295 10.5654
RightToes  -5.8209e-011 0 -3.6325e-017
Spine  -12.1777 -0.997657 4.09628
Spine1  22.2298 -3.90041 3.45481
HEad  -3.41446 -9.94461 1.65516
LeftShoulder1  7.25899 -15.3817 -32.411
LeftArm  20.9506 11.6793 -46.6889
LeftForeArm  12.0751 -65.3542 -24.4554
LeftHand  -0.246645 0.021 5.37786
RightShoulder  6.86174 14.2912 32.6061
RightArm  36.1649 16.3317 56.0949
RightForeArm  26.3571 56.5908 14.8388
RightHand  -0.24729 -0.0210522 -5.37781
LeftUpLeg  0.406551 5.58557 -3.85687
LeftLeg  16.8671 -31.5523 -11.3627
LeftFoot  -3.75609 -0.366661 5.86923
LeftToes  -7.45818e-011 -3.37383e-011 1.08613e-011
751
root  -8.66677 39.7417 10.189 177.781 -42.1655 176.704
RightUpLeg  -5.85057 25.9569 -13.0291
RightLeg  46.2963 -1.04673 -1.49063
RightFoot  33.8106 -4.10864 10.4501
RightToes  -5.8209e-011 0 -3.6325e-017
Spine  -11.3097 -1.04754 3.6524
Spine1  21.7899 -3.92536 3.59576
HEad  -3.72931 -10.4315 1.91103
LeftShoulder1  7.29489 -15.4395 -32.4827
LeftArm  21.0695 11.9329 -46.5077
LeftForeArm  11.6602 -65.583 -24.8185
LeftHand  -0.246645 0.021 5.37786
RightShoulder  6.89343 14.3127 32.7375
RightArm  36.2484 16.143 56.0223
RightForeArm  23.8944 55.7848 14.5716
RightHand  -0.24729 -0.0210522 -5.37781
LeftUpLeg  0.513568 5.83737 -3.65065
LeftLeg  16.7143 -30.0483 -10.9542
LeftFoot  -4.08106 -0.376072 6.31094
LeftToes  -7.45818e-011 -3.37383e-011 1.08613e-011
752
root  -8.63382 39.7587 10.2734 177.379 -40.4704 177.033
RightUpLeg  -6.10161 25.7737 -13.2735
RightLeg  46.04 -1.34804 -1.81234
RightFoot  32.5707 -3.80574 10.005
RightToes  -5.8209e-011 0 -3.6325e-017
Spine  -10.7063 -1.1345 3.13852
Spine1  21.6522 -4.03244 3.79039
HEad  -4.14804 -10.9229 2.07365
LeftShoulder1  7.31119 -15.4774 -32.4911
LeftArm  20.7703 12.1747 -46.4463
LeftForeArm  11.9675 -65.8224 -25.108
LeftHand  -0.246645 0.021 5.37786
RightShoulder  6.8746 14.2922 32.6764
RightArm  36.1989 16.0803 56.0806
RightForeArm  21.1828 55.173 14.4546
RightHand  -0.24729 -0.0210522 -5.37781
LeftUpLeg  0.57664 5.9587 -3.51691
LeftLeg  16.5111 -28.3872 -10.4621
LeftFoot  -4.3884 -0.388502 6.82194
LeftToes  -7.45818e-011 -3.37383e-011 1.08613e-011
753
root  -8.59755 39.7672 10.3731 176.976 -38.6865 177.346
RightUpLeg  -6.31325 25.6128 -13.5238
RightLeg  45.7273 -1.60426 -2.07462
RightFoot  31.1423 -3.4902 9.53953
RightToes  -5.8209e-011 0 -3.6325e-017
Spine  -9.9937 -1.20386 2.6288
Spine1  21.4634 -4.12232 4.01893
HEad  -4.5577 -11.4326 2.22679
LeftShoulder1  7.31796 -15.5092 -32.4621
LeftArm  20.1406 12.5049 -46.5274
LeftForeArm  12.1171 -66.1049 -25.4886
LeftHand  -0.246645 0.021 5.37786
RightShoulder  6.8447 14.2705 32.5553
RightArm  36.1376 16.0564 56.1666
RightForeArm  18.9495 54.6518 14.3513
RightHand  -0.24729 -0.0210522 -5.37781
LeftUpLeg  0.65598 6.11724 -3.3749
LeftLeg  16.2832 -26.757 -9.98075
LeftFoot  -4.62833 -0.381885 6.97775
LeftToes  -7.45818e-011 -3.37383e-011 1.08613e-011
754
root  -8.54592 39.7635 10.4824 176.59 -36.6319 177.648
RightUpLeg  -6.64884 25.552 -13.8145
RightLeg  45.4279 -1.82016 -2.28804
RightFoot  29.5493 -3.23761 9.23805
RightToes  -5.8209e-011 0 -3.6325e-017
Spine  -8.98644 -1.15939 2.12702
Spine1  20.911 -4.06613 4.23208
HEad  -4.76912 -11.8531 2.41992
LeftShoulder1  7.33778 -15.5558 -32.4714
LeftArm  19.4886 13.0381 -46.6403
LeftForeArm  11.4753 -66.3761 -25.9699
LeftHand  -0.246645 0.021 5.37786
RightShoulder  6.85592 14.2924 32.5707
RightArm  36.3643 15.9495 56.1653
RightForeArm  17.2921 53.9681 14.1068
RightHand  -0.24729 -0.0210522 -5.37781
LeftUpLeg  0.711138 6.45561 -3.14205
LeftLeg  16.0839 -25.157 -9.61161
LeftFoot  -4.83652 -0.357637 6.79851
LeftToes  -7.45818e-011 -3.37383e-011 1.08613e-011
755
root  -8.48805 39.7586 10.6005 176.297 -34.4684 177.913
RightUpLeg  -7.08328 25.4288 -14.1791
RightLeg  45.055 -1.97268 -2.4226
RightFoot  27.8812 -3.00531 8.97889
RightToes  -5.8209e-011 0 -3.6325e-017
Spine  -7.89103 -1.08411 1.58567
Spine1  20.1423 -3.97091 4.4393
HEad  -4.84518 -12.0527 2.58309
LeftShoulder1  7.35381 -15.586 -32.4941
LeftArm  18.6619 13.6504 -46.7391
LeftForeArm  11.0343 -66.1986 -25.7724
LeftHand  -0.246645 0.021 5.37786
RightShoulder  6.89529 14.337 32.6948
RightArm  36.9075 15.8133 56.1052
RightForeArm  15.6555 53.088 13.761
RightHand  -0.24729 -0.0210522 -5.37781
LeftUpLeg  0.684332 6.7288 -2.92001
LeftLeg  15.8766 -23.4493 -9.24503
LeftFoot  -5.03441 -0.329479 6.52452
LeftToes  -7.45818e-011 -3.37383e-011 1.08613e-011
